<svg width="380" height="380" viewBox="0 0 380 380" fill="none" xmlns="http://www.w3.org/2000/svg">
<g filter="url(#filter0_b_35_368)">
<g filter="url(#filter1_i_35_368)">
<path d="M298.326 191.629C299.049 187.524 299.426 183.302 299.426 178.993C299.426 138.68 266.441 106 225.752 106C195.503 106 169.512 124.061 158.166 149.893C148.974 142.03 137.047 137.283 124.012 137.283C94.949 137.283 71.3884 160.885 71.3884 190C71.3884 191.621 71.4615 193.225 71.6045 194.809C57.6255 201.593 48 215.828 48 232.29C48 255.326 66.8484 274 90.0992 274H288.901C312.152 274 331 255.326 331 232.29C331 212.464 317.039 195.869 298.326 191.629Z" fill="url(#paint0_linear_35_368)"/>
</g>
</g>
<defs>
<filter id="filter0_b_35_368" x="21" y="79" width="337" height="222" filterUnits="userSpaceOnUse" color-interpolation-filters="sRGB">
<feFlood flood-opacity="0" result="BackgroundImageFix"/>
<feGaussianBlur in="BackgroundImageFix" stdDeviation="13.5"/>
<feComposite in2="SourceAlpha" operator="in" result="effect1_backgroundBlur_35_368"/>
<feBlend mode="normal" in="SourceGraphic" in2="effect1_backgroundBlur_35_368" result="shape"/>
</filter>
<filter id="filter1_i_35_368" x="48" y="106" width="283" height="178" filterUnits="userSpaceOnUse" color-interpolation-filters="sRGB">
<feFlood flood-opacity="0" result="BackgroundImageFix"/>
<feBlend mode="normal" in="SourceGraphic" in2="BackgroundImageFix" result="shape"/>
<feColorMatrix in="SourceAlpha" type="matrix" values="0 0 0 0 0 0 0 0 0 0 0 0 0 0 0 0 0 0 127 0" result="hardAlpha"/>
<feOffset dy="11"/>
<feGaussianBlur stdDeviation="5"/>
<feComposite in2="hardAlpha" operator="arithmetic" k2="-1" k3="1"/>
<feColorMatrix type="matrix" values="0 0 0 0 1 0 0 0 0 1 0 0 0 0 1 0 0 0 1 0"/>
<feBlend mode="normal" in2="shape" result="effect1_innerShadow_35_368"/>
</filter>
<linearGradient id="paint0_linear_35_368" x1="66" y1="259" x2="351.5" y2="45.5" gradientUnits="userSpaceOnUse">
<stop stop-color="white"/>
<stop offset="1" stop-color="white" stop-opacity="0.58"/>
</linearGradient>
</defs>
</svg>
